<svg width="372" height="88" viewBox="0 0 372 88" fill="none" xmlns="http://www.w3.org/2000/svg">
<g filter="url(#filter0_d_5427_87)">
<path d="M40.908 4.556C43.768 4.556 46.134 5.414 48.006 7.13C49.93 8.794 51.36 10.9 52.296 13.448C53.232 15.996 53.7 18.752 53.7 21.716C53.7 24.628 53.232 27.358 52.296 29.906C51.36 32.454 49.93 34.586 48.006 36.302C46.134 37.966 43.768 38.798 40.908 38.798H27.024C26.4 38.798 25.854 39.032 25.386 39.5C24.97 39.968 24.762 40.54 24.762 41.216V50.42C24.762 50.836 24.84 51.226 24.996 51.59L26.946 55.49C27.362 56.322 27.362 57.128 26.946 57.908C26.686 58.376 26.374 58.688 26.01 58.844C25.646 59 25.23 59.078 24.762 59.078H7.29C6.458 59.078 5.834 58.688 5.418 57.908C5.002 57.128 5.002 56.348 5.418 55.568L7.446 51.512C7.602 51.148 7.68 50.758 7.68 50.342V13.136C7.68 12.772 7.602 12.382 7.446 11.966L5.418 7.91C5.002 7.13 5.002 6.35 5.418 5.57C5.834 4.79 6.458 4.4 7.29 4.4L40.908 4.556ZM24.996 12.122C24.788 12.486 24.684 12.876 24.684 13.292V28.97C24.684 29.646 24.892 30.218 25.308 30.686C25.776 31.154 26.322 31.388 26.946 31.388H30.378C31.886 31.388 33.134 30.92 34.122 29.984C35.11 28.996 35.838 27.8 36.306 26.396C36.826 24.94 37.086 23.38 37.086 21.716C37.086 20.052 36.826 18.518 36.306 17.114C35.838 15.658 35.11 14.462 34.122 13.526C33.134 12.538 31.886 12.044 30.378 12.044H25.074L24.996 12.122ZM82.5161 55.958C80.7481 57.102 78.9801 57.96 77.2121 58.532C75.4961 59.052 73.7801 59.442 72.0641 59.702C68.4761 60.222 65.4601 59.884 63.0161 58.688C60.5721 57.44 58.7261 55.75 57.4781 53.618C56.2821 51.486 55.6841 49.094 55.6841 46.442C55.6841 43.79 56.2821 41.32 57.4781 39.032C58.7261 36.692 60.5721 34.742 63.0161 33.182C65.4601 31.57 68.5281 30.738 72.2201 30.686H82.4381V28.034C82.4381 26.266 81.8661 24.94 80.7221 24.056C79.6301 23.172 78.4081 22.704 77.0561 22.652C76.1201 22.652 75.3401 22.782 74.7161 23.042C74.1441 23.25 73.6241 23.562 73.1561 23.978C72.7401 24.394 72.3501 24.862 71.9861 25.382C71.6221 25.902 71.2581 26.396 70.8941 26.864C69.9581 28.008 68.9441 28.736 67.8521 29.048C66.8121 29.36 65.7981 29.412 64.8101 29.204C63.8741 28.944 63.0161 28.476 62.2361 27.8C61.5081 27.124 61.0401 26.344 60.8321 25.46C60.6241 24.576 60.7281 23.666 61.1441 22.73C61.5601 21.742 62.4181 20.858 63.7181 20.078C65.0701 19.246 66.9421 18.57 69.3341 18.05C71.7261 17.53 74.7681 17.27 78.4601 17.27C80.6961 17.27 82.9841 17.556 85.3241 18.128C87.7161 18.648 89.8741 19.506 91.7981 20.702C93.7741 21.898 95.3601 23.458 96.5561 25.382C97.8041 27.254 98.4281 29.542 98.4281 32.246V50.264C98.4281 50.628 98.5061 50.992 98.6621 51.356L100.69 55.412C100.846 55.724 100.924 56.036 100.924 56.348C101.028 56.972 100.872 57.57 100.456 58.142C100.092 58.662 99.5461 58.922 98.8181 58.922H85.4801C84.6481 58.922 83.9461 58.636 83.3741 58.064C82.8021 57.492 82.5161 56.79 82.5161 55.958ZM71.0501 45.818C71.0501 47.378 71.5961 48.73 72.6881 49.874C73.8321 50.966 75.1841 51.512 76.7441 51.512C78.3041 51.512 79.6301 50.966 80.7221 49.874C81.8661 48.73 82.4381 47.378 82.4381 45.818V41.684C82.4381 40.124 81.8661 38.798 80.7221 37.706C79.6301 36.562 78.3041 35.99 76.7441 35.99C75.1841 35.99 73.8321 36.562 72.6881 37.706C71.5961 38.798 71.0501 40.124 71.0501 41.684V45.818ZM120.716 18.362C121.548 18.362 122.25 18.648 122.822 19.22C123.394 19.792 123.68 20.494 123.68 21.326C126.332 19.662 128.958 18.57 131.558 18.05C134.21 17.53 136.654 17.27 138.89 17.27C140.71 17.27 142.348 17.53 143.804 18.05C145.312 18.518 146.586 19.324 147.626 20.468C148.718 21.612 149.55 23.146 150.122 25.07C150.746 26.942 151.058 29.256 151.058 32.012C151.058 32.792 151.058 33.806 151.058 35.054C151.058 36.25 151.058 37.498 151.058 38.798C151.11 40.046 151.136 41.294 151.136 42.542C151.136 43.738 151.136 44.752 151.136 45.584V50.342C151.136 50.758 151.214 51.148 151.37 51.512L153.398 55.568C153.814 56.348 153.814 57.128 153.398 57.908C152.982 58.688 152.358 59.078 151.526 59.078H134.756C133.924 59.078 133.3 58.688 132.884 57.908C132.468 57.128 132.468 56.348 132.884 55.568L134.912 51.512C135.068 51.148 135.146 50.758 135.146 50.342V30.92C135.042 29.464 134.444 28.242 133.352 27.254C132.26 26.266 130.96 25.772 129.452 25.772C127.944 25.772 126.644 26.266 125.552 27.254C124.46 28.242 123.862 29.464 123.758 30.92V50.342C123.758 50.758 123.836 51.148 123.992 51.512L126.02 55.568C126.436 56.348 126.436 57.128 126.02 57.908C125.604 58.688 124.98 59.078 124.148 59.078H107.456C106.624 59.078 106 58.688 105.584 57.908C105.168 57.128 105.168 56.348 105.584 55.568L107.612 51.512C107.768 51.148 107.846 50.758 107.846 50.342V26.942C107.846 26.578 107.768 26.188 107.612 25.772L105.584 21.716C105.168 20.936 105.168 20.156 105.584 19.376C106 18.596 106.624 18.206 107.456 18.206H120.794L120.716 18.362ZM184.891 55.958C183.123 57.102 181.355 57.96 179.587 58.532C177.871 59.052 176.155 59.442 174.439 59.702C170.851 60.222 167.835 59.884 165.391 58.688C162.947 57.44 161.101 55.75 159.853 53.618C158.657 51.486 158.059 49.094 158.059 46.442C158.059 43.79 158.657 41.32 159.853 39.032C161.101 36.692 162.947 34.742 165.391 33.182C167.835 31.57 170.903 30.738 174.595 30.686H184.813V28.034C184.813 26.266 184.241 24.94 183.097 24.056C182.005 23.172 180.783 22.704 179.431 22.652C178.495 22.652 177.715 22.782 177.091 23.042C176.519 23.25 175.999 23.562 175.531 23.978C175.115 24.394 174.725 24.862 174.361 25.382C173.997 25.902 173.633 26.396 173.269 26.864C172.333 28.008 171.319 28.736 170.227 29.048C169.187 29.36 168.173 29.412 167.185 29.204C166.249 28.944 165.391 28.476 164.611 27.8C163.883 27.124 163.415 26.344 163.207 25.46C162.999 24.576 163.103 23.666 163.519 22.73C163.935 21.742 164.793 20.858 166.093 20.078C167.445 19.246 169.317 18.57 171.709 18.05C174.101 17.53 177.143 17.27 180.835 17.27C183.071 17.27 185.359 17.556 187.699 18.128C190.091 18.648 192.249 19.506 194.173 20.702C196.149 21.898 197.735 23.458 198.931 25.382C200.179 27.254 200.803 29.542 200.803 32.246V50.264C200.803 50.628 200.881 50.992 201.037 51.356L203.065 55.412C203.221 55.724 203.299 56.036 203.299 56.348C203.403 56.972 203.247 57.57 202.831 58.142C202.467 58.662 201.921 58.922 201.193 58.922H187.855C187.023 58.922 186.321 58.636 185.749 58.064C185.177 57.492 184.891 56.79 184.891 55.958ZM173.425 45.818C173.425 47.378 173.971 48.73 175.063 49.874C176.207 50.966 177.559 51.512 179.119 51.512C180.679 51.512 182.005 50.966 183.097 49.874C184.241 48.73 184.813 47.378 184.813 45.818V41.684C184.813 40.124 184.241 38.798 183.097 37.706C182.005 36.562 180.679 35.99 179.119 35.99C177.559 35.99 176.207 36.562 175.063 37.706C173.971 38.798 173.425 40.124 173.425 41.684V45.818ZM213.416 20.39C215.392 19.038 217.55 18.284 219.89 18.128C222.282 17.972 224.648 17.894 226.988 17.894H243.758C244.226 17.894 244.616 18.102 244.928 18.518C245.292 18.934 245.474 19.428 245.474 20V26.942C245.474 28.19 245.24 29.386 244.772 30.53C244.304 31.622 243.68 32.584 242.9 33.416C242.12 34.248 241.184 34.924 240.092 35.444C239.052 35.912 237.934 36.146 236.738 36.146C235.542 36.146 234.398 35.912 233.306 35.444C232.266 34.924 231.356 34.248 230.576 33.416C229.796 32.584 229.172 31.622 228.704 30.53C228.236 29.386 228.002 28.19 228.002 26.942V26.63C228.002 25.59 227.638 24.706 226.91 23.978C226.234 23.198 225.376 22.808 224.336 22.808C223.296 22.808 222.412 23.198 221.684 23.978C221.008 24.706 220.67 25.59 220.67 26.63V28.814C220.67 31.102 220.67 32.74 220.67 33.728C220.67 34.716 220.644 35.522 220.592 36.146C220.592 36.77 220.592 37.446 220.592 38.174C220.592 38.85 220.592 40.046 220.592 41.762C220.592 44.622 221.71 46.936 223.946 48.704C226.234 50.472 228.756 51.044 231.512 50.42L243.758 47.768C244.538 47.612 245.136 47.872 245.552 48.548C245.968 49.224 245.968 49.9 245.552 50.576C244.512 52.24 243.29 53.67 241.886 54.866C240.482 56.01 238.948 56.946 237.284 57.674C235.672 58.402 233.93 58.948 232.058 59.312C230.238 59.676 228.392 59.858 226.52 59.858H226.286C223.634 59.858 221.034 59.416 218.486 58.532C216.562 57.856 214.742 56.946 213.026 55.802C211.362 54.606 209.906 53.176 208.658 51.512C207.41 49.796 206.422 47.846 205.694 45.662C204.966 43.426 204.602 40.956 204.602 38.252C204.602 34.144 205.434 30.634 207.098 27.722C208.762 24.81 210.868 22.47 213.416 20.702V20.39ZM266.845 17.894C269.809 17.218 272.877 17.14 276.049 17.66C279.221 18.128 282.107 19.194 284.707 20.858C287.359 22.47 289.543 24.706 291.259 27.566C293.027 30.374 293.963 33.78 294.067 37.784V38.954C294.067 39.526 293.859 40.02 293.443 40.436C293.027 40.852 292.533 41.06 291.961 41.06H268.093C267.573 41.06 267.157 41.268 266.845 41.684C266.533 42.1 266.403 42.542 266.455 43.01C266.767 45.35 267.859 47.248 269.731 48.704C272.019 50.472 274.541 51.044 277.297 50.42L289.543 47.768C290.323 47.612 290.921 47.872 291.337 48.548C291.753 49.224 291.753 49.9 291.337 50.576C290.297 52.24 289.075 53.67 287.671 54.866C286.267 56.01 284.733 56.946 283.069 57.674C281.457 58.402 279.715 58.948 277.843 59.312C276.023 59.676 274.177 59.858 272.305 59.858H272.227H271.993H270.589H270.511H270.277C267.729 59.65 265.233 59.078 262.789 58.142C260.397 57.154 258.265 55.776 256.393 54.008C254.521 52.24 253.013 50.082 251.869 47.534C250.725 44.986 250.153 42.048 250.153 38.72C250.153 35.756 250.621 33.104 251.557 30.764C252.493 28.424 253.715 26.396 255.223 24.68C256.783 22.964 258.551 21.56 260.527 20.468C262.555 19.324 264.661 18.518 266.845 18.05V17.894ZM275.815 35.99C276.387 35.99 276.881 35.782 277.297 35.366C277.713 34.95 277.921 34.456 277.921 33.884V29.36C277.921 27.748 277.349 26.37 276.205 25.226C275.113 24.082 273.761 23.51 272.149 23.51C270.537 23.51 269.159 24.082 268.015 25.226C266.923 26.37 266.377 27.748 266.377 29.36V33.884C266.377 34.456 266.585 34.95 267.001 35.366C267.417 35.782 267.911 35.99 268.483 35.99H275.815ZM299.112 50.342V26.942C299.112 26.578 299.034 26.188 298.878 25.772L296.85 21.716C296.434 20.936 296.434 20.156 296.85 19.376C297.266 18.596 297.89 18.206 298.722 18.206H312.06C312.892 18.206 313.594 18.492 314.166 19.064C314.738 19.636 315.024 20.338 315.024 21.17V50.264C315.024 50.68 315.102 51.07 315.258 51.434L317.286 55.49C317.702 56.27 317.702 57.05 317.286 57.83C316.87 58.61 316.246 59 315.414 59H298.722C297.89 59 297.266 58.61 296.85 57.83C296.434 57.05 296.434 56.27 296.85 55.49L298.878 51.434C299.034 51.07 299.112 50.68 299.112 50.264V50.342ZM307.458 0.889995C308.55 0.889995 309.59 1.098 310.578 1.514C311.566 1.878 312.424 2.398 313.152 3.074C313.88 3.75 314.452 4.556 314.868 5.492C315.284 6.376 315.492 7.312 315.492 8.3C315.492 9.34 315.284 10.302 314.868 11.186C314.452 12.07 313.88 12.85 313.152 13.526C312.424 14.202 311.566 14.748 310.578 15.164C309.59 15.528 308.55 15.71 307.458 15.71C306.366 15.71 305.326 15.528 304.338 15.164C303.35 14.748 302.492 14.202 301.764 13.526C301.036 12.85 300.464 12.07 300.048 11.186C299.632 10.302 299.424 9.34 299.424 8.3C299.424 7.312 299.632 6.376 300.048 5.492C300.464 4.556 301.036 3.75 301.764 3.074C302.492 2.398 303.35 1.878 304.338 1.514C305.326 1.098 306.366 0.889995 307.458 0.889995ZM348.813 55.958C347.045 57.102 345.277 57.96 343.509 58.532C341.793 59.052 340.077 59.442 338.361 59.702C334.773 60.222 331.757 59.884 329.313 58.688C326.869 57.44 325.023 55.75 323.775 53.618C322.579 51.486 321.981 49.094 321.981 46.442C321.981 43.79 322.579 41.32 323.775 39.032C325.023 36.692 326.869 34.742 329.313 33.182C331.757 31.57 334.825 30.738 338.517 30.686H348.735V28.034C348.735 26.266 348.163 24.94 347.019 24.056C345.927 23.172 344.705 22.704 343.353 22.652C342.417 22.652 341.637 22.782 341.013 23.042C340.441 23.25 339.921 23.562 339.453 23.978C339.037 24.394 338.647 24.862 338.283 25.382C337.919 25.902 337.555 26.396 337.191 26.864C336.255 28.008 335.241 28.736 334.149 29.048C333.109 29.36 332.095 29.412 331.107 29.204C330.171 28.944 329.313 28.476 328.533 27.8C327.805 27.124 327.337 26.344 327.129 25.46C326.921 24.576 327.025 23.666 327.441 22.73C327.857 21.742 328.715 20.858 330.015 20.078C331.367 19.246 333.239 18.57 335.631 18.05C338.023 17.53 341.065 17.27 344.757 17.27C346.993 17.27 349.281 17.556 351.621 18.128C354.013 18.648 356.171 19.506 358.095 20.702C360.071 21.898 361.657 23.458 362.853 25.382C364.101 27.254 364.725 29.542 364.725 32.246V50.264C364.725 50.628 364.803 50.992 364.959 51.356L366.987 55.412C367.143 55.724 367.221 56.036 367.221 56.348C367.325 56.972 367.169 57.57 366.753 58.142C366.389 58.662 365.843 58.922 365.115 58.922H351.777C350.945 58.922 350.243 58.636 349.671 58.064C349.099 57.492 348.813 56.79 348.813 55.958ZM337.347 45.818C337.347 47.378 337.893 48.73 338.985 49.874C340.129 50.966 341.481 51.512 343.041 51.512C344.601 51.512 345.927 50.966 347.019 49.874C348.163 48.73 348.735 47.378 348.735 45.818V41.684C348.735 40.124 348.163 38.798 347.019 37.706C345.927 36.562 344.601 35.99 343.041 35.99C341.481 35.99 340.129 36.562 338.985 37.706C337.893 38.798 337.347 40.124 337.347 41.684V45.818Z" fill="#75CDDB"/>
</g>
<g filter="url(#filter1_d_5427_87)">
<path d="M11.95 79.11C11.356 79.11 10.7987 79 10.278 78.78C9.76467 78.5527 9.31367 78.241 8.925 77.845C8.54367 77.4417 8.243 76.9723 8.023 76.437C7.81033 75.9017 7.704 75.3223 7.704 74.699C7.704 74.083 7.81033 73.511 8.023 72.983C8.243 72.4477 8.54367 71.982 8.925 71.586C9.31367 71.1827 9.76467 70.8673 10.278 70.64C10.7913 70.4127 11.3487 70.299 11.95 70.299C12.5147 70.299 12.9987 70.3723 13.402 70.519C13.8127 70.6657 14.2233 70.9077 14.634 71.245C14.6927 71.289 14.7367 71.3367 14.766 71.388C14.8027 71.432 14.8247 71.4797 14.832 71.531C14.8467 71.575 14.854 71.63 14.854 71.696C14.854 71.8353 14.8027 71.9527 14.7 72.048C14.6047 72.1433 14.4837 72.1947 14.337 72.202C14.1977 72.2093 14.0657 72.1617 13.941 72.059C13.6697 71.8243 13.3873 71.6447 13.094 71.52C12.808 71.3953 12.4267 71.333 11.95 71.333C11.5173 71.333 11.1103 71.421 10.729 71.597C10.3477 71.773 10.0103 72.015 9.717 72.323C9.431 72.631 9.20733 72.9903 9.046 73.401C8.88467 73.8043 8.804 74.237 8.804 74.699C8.804 75.1683 8.88467 75.6083 9.046 76.019C9.20733 76.4223 9.431 76.778 9.717 77.086C10.0103 77.394 10.3477 77.636 10.729 77.812C11.1103 77.9807 11.5173 78.065 11.95 78.065C12.324 78.065 12.676 78.0027 13.006 77.878C13.3433 77.746 13.666 77.5663 13.974 77.339C14.106 77.2437 14.2343 77.2033 14.359 77.218C14.491 77.2253 14.601 77.2767 14.689 77.372C14.777 77.46 14.821 77.5847 14.821 77.746C14.821 77.8193 14.8063 77.8927 14.777 77.966C14.755 78.032 14.711 78.0943 14.645 78.153C14.2563 78.4757 13.8347 78.7177 13.38 78.879C12.9253 79.033 12.4487 79.11 11.95 79.11ZM14.821 77.746L13.721 77.526V75.557H12.203C12.0417 75.557 11.906 75.5093 11.796 75.414C11.686 75.3187 11.631 75.1977 11.631 75.051C11.631 74.9043 11.686 74.7833 11.796 74.688C11.906 74.5927 12.0417 74.545 12.203 74.545H14.26C14.4287 74.545 14.5643 74.6 14.667 74.71C14.7697 74.8127 14.821 74.9483 14.821 75.117V77.746ZM28.9928 79C28.8314 79 28.6958 78.945 28.5858 78.835C28.4758 78.725 28.4208 78.5893 28.4208 78.428V70.981C28.4208 70.8123 28.4758 70.6767 28.5858 70.574C28.6958 70.464 28.8314 70.409 28.9928 70.409H33.9648C34.1334 70.409 34.2691 70.4603 34.3718 70.563C34.4744 70.6583 34.5258 70.7867 34.5258 70.948C34.5258 71.102 34.4744 71.2267 34.3718 71.322C34.2691 71.4173 34.1334 71.465 33.9648 71.465H29.5648V74.138H32.7218C32.8904 74.138 33.0261 74.1893 33.1288 74.292C33.2314 74.3873 33.2828 74.512 33.2828 74.666C33.2828 74.82 33.2314 74.9483 33.1288 75.051C33.0261 75.1463 32.8904 75.194 32.7218 75.194H29.5648V77.944H33.9648C34.1334 77.944 34.2691 77.9917 34.3718 78.087C34.4744 78.1823 34.5258 78.307 34.5258 78.461C34.5258 78.6223 34.4744 78.7543 34.3718 78.857C34.2691 78.9523 34.1334 79 33.9648 79H28.9928ZM50.6209 79.11C50.1516 79.11 49.7043 79.0367 49.2789 78.89C48.8536 78.7433 48.4833 78.538 48.1679 78.274C47.8526 78.01 47.6216 77.7057 47.4749 77.361C47.4016 77.207 47.4016 77.064 47.4749 76.932C47.5556 76.8 47.6876 76.7157 47.8709 76.679C48.0029 76.6497 48.1313 76.6717 48.2559 76.745C48.3879 76.811 48.4869 76.9137 48.5529 77.053C48.6409 77.2363 48.7839 77.405 48.9819 77.559C49.1873 77.713 49.4329 77.8377 49.7189 77.933C50.0049 78.0283 50.3056 78.076 50.6209 78.076C50.9729 78.076 51.2956 78.021 51.5889 77.911C51.8896 77.801 52.1316 77.6433 52.3149 77.438C52.4983 77.2253 52.5899 76.965 52.5899 76.657C52.5899 76.2683 52.4359 75.92 52.1279 75.612C51.8273 75.304 51.3286 75.1133 50.6319 75.04C49.7226 74.952 49.0076 74.6843 48.4869 74.237C47.9663 73.7897 47.7059 73.236 47.7059 72.576C47.7059 72.092 47.8416 71.6813 48.1129 71.344C48.3843 71.0067 48.7509 70.75 49.2129 70.574C49.6823 70.398 50.2029 70.31 50.7749 70.31C51.2223 70.31 51.6109 70.3723 51.9409 70.497C52.2783 70.6217 52.5716 70.794 52.8209 71.014C53.0703 71.234 53.2866 71.4943 53.4699 71.795C53.5726 71.9563 53.6129 72.1103 53.5909 72.257C53.5763 72.3963 53.5066 72.5063 53.3819 72.587C53.2426 72.675 53.0923 72.6933 52.9309 72.642C52.7696 72.5907 52.6486 72.4953 52.5679 72.356C52.4506 72.1433 52.3076 71.9637 52.1389 71.817C51.9703 71.6703 51.7723 71.5567 51.5449 71.476C51.3176 71.388 51.0499 71.344 50.7419 71.344C50.1993 71.3367 49.7446 71.4393 49.3779 71.652C49.0113 71.8573 48.8279 72.1763 48.8279 72.609C48.8279 72.829 48.8829 73.0417 48.9929 73.247C49.1103 73.445 49.3193 73.6173 49.6199 73.764C49.9279 73.9107 50.3679 74.0133 50.9399 74.072C51.8126 74.16 52.4909 74.4277 52.9749 74.875C53.4663 75.315 53.7119 75.898 53.7119 76.624C53.7119 77.042 53.6239 77.405 53.4479 77.713C53.2793 78.021 53.0483 78.2813 52.7549 78.494C52.4689 78.6993 52.1389 78.8533 51.7649 78.956C51.3983 79.0587 51.0169 79.11 50.6209 79.11ZM69.3367 79C69.1754 79 69.0397 78.945 68.9297 78.835C68.8197 78.725 68.7647 78.5893 68.7647 78.428V70.409H69.9087V78.428C69.9087 78.5893 69.8537 78.725 69.7437 78.835C69.6337 78.945 69.4981 79 69.3367 79ZM66.3887 71.465C66.2347 71.465 66.1064 71.4173 66.0037 71.322C65.9084 71.2193 65.8607 71.091 65.8607 70.937C65.8607 70.783 65.9084 70.6583 66.0037 70.563C66.1064 70.4603 66.2347 70.409 66.3887 70.409H72.2737C72.4277 70.409 72.5524 70.4603 72.6477 70.563C72.7504 70.6583 72.8017 70.783 72.8017 70.937C72.8017 71.091 72.7504 71.2193 72.6477 71.322C72.5524 71.4173 72.4277 71.465 72.2737 71.465H66.3887ZM84.6163 79C84.411 79 84.2533 78.912 84.1433 78.736C84.0333 78.56 84.0223 78.373 84.1103 78.175L87.2013 70.794C87.3113 70.5373 87.491 70.409 87.7403 70.409C88.0043 70.409 88.184 70.5373 88.2793 70.794L91.3813 78.197C91.462 78.4023 91.4473 78.5893 91.3373 78.758C91.2347 78.9193 91.077 79 90.8643 79C90.7543 79 90.648 78.9707 90.5453 78.912C90.45 78.846 90.3803 78.758 90.3363 78.648L87.6083 71.872H87.9163L85.1443 78.648C85.093 78.7653 85.016 78.8533 84.9133 78.912C84.818 78.9707 84.719 79 84.6163 79ZM85.1993 77.108L85.6393 76.162H89.9513L90.3913 77.108H85.1993ZM88.4993 69.518C88.3087 69.518 88.1363 69.4777 87.9823 69.397C87.8283 69.309 87.6817 69.199 87.5423 69.067C87.4543 68.9863 87.381 68.924 87.3223 68.88C87.2637 68.8287 87.1977 68.803 87.1243 68.803C87.051 68.803 86.9887 68.8323 86.9373 68.891C86.886 68.9423 86.831 69.0157 86.7723 69.111C86.7063 69.221 86.6147 69.3017 86.4973 69.353C86.38 69.397 86.259 69.3933 86.1343 69.342C86.0097 69.2833 85.9217 69.1953 85.8703 69.078C85.8263 68.9533 85.841 68.8287 85.9143 68.704C86.0683 68.4253 86.237 68.2237 86.4203 68.099C86.6037 67.967 86.809 67.901 87.0363 67.901C87.293 67.901 87.4947 67.9633 87.6413 68.088C87.788 68.2053 87.909 68.3043 88.0043 68.385C88.0923 68.4583 88.162 68.5097 88.2133 68.539C88.272 68.5683 88.327 68.583 88.3783 68.583C88.459 68.583 88.5397 68.528 88.6203 68.418C88.701 68.3007 88.8 68.2163 88.9173 68.165C89.0347 68.1137 89.1557 68.1137 89.2803 68.165C89.4197 68.231 89.5113 68.3263 89.5553 68.451C89.5993 68.5757 89.581 68.7003 89.5003 68.825C89.3537 69.067 89.1997 69.243 89.0383 69.353C88.877 69.463 88.6973 69.518 88.4993 69.518ZM108.218 79.11C107.573 79.11 106.982 79.0037 106.447 78.791C105.912 78.571 105.45 78.2667 105.061 77.878C104.68 77.482 104.383 77.0163 104.17 76.481C103.957 75.9383 103.851 75.3443 103.851 74.699C103.851 74.0537 103.957 73.4633 104.17 72.928C104.383 72.3927 104.68 71.9307 105.061 71.542C105.45 71.146 105.912 70.8417 106.447 70.629C106.982 70.409 107.573 70.299 108.218 70.299C108.863 70.299 109.45 70.409 109.978 70.629C110.513 70.8417 110.975 71.146 111.364 71.542C111.753 71.9307 112.053 72.3927 112.266 72.928C112.479 73.4633 112.585 74.0537 112.585 74.699C112.585 75.3443 112.479 75.9383 112.266 76.481C112.053 77.0163 111.753 77.482 111.364 77.878C110.975 78.2667 110.513 78.571 109.978 78.791C109.45 79.0037 108.863 79.11 108.218 79.11ZM108.218 78.076C108.695 78.076 109.131 77.9917 109.527 77.823C109.93 77.647 110.279 77.4087 110.572 77.108C110.865 76.8 111.089 76.4407 111.243 76.03C111.404 75.6193 111.485 75.1757 111.485 74.699C111.485 74.2223 111.404 73.7787 111.243 73.368C111.089 72.9573 110.865 72.6017 110.572 72.301C110.279 71.993 109.93 71.7547 109.527 71.586C109.131 71.4173 108.695 71.333 108.218 71.333C107.741 71.333 107.301 71.4173 106.898 71.586C106.502 71.7547 106.157 71.993 105.864 72.301C105.578 72.6017 105.354 72.9573 105.193 73.368C105.032 73.7787 104.951 74.2223 104.951 74.699C104.951 75.1757 105.032 75.6193 105.193 76.03C105.354 76.4407 105.578 76.8 105.864 77.108C106.157 77.4087 106.502 77.647 106.898 77.823C107.301 77.9917 107.741 78.076 108.218 78.076ZM141.711 79C141.55 79 141.414 78.945 141.304 78.835C141.194 78.725 141.139 78.5893 141.139 78.428V70.981C141.139 70.8123 141.194 70.6767 141.304 70.574C141.414 70.464 141.55 70.409 141.711 70.409H143.702C144.333 70.409 144.905 70.5153 145.418 70.728C145.939 70.9333 146.39 71.2303 146.771 71.619C147.153 72.0003 147.446 72.4513 147.651 72.972C147.857 73.4927 147.959 74.0683 147.959 74.699C147.959 75.3297 147.857 75.909 147.651 76.437C147.446 76.9577 147.153 77.4123 146.771 77.801C146.39 78.1823 145.939 78.4793 145.418 78.692C144.905 78.8973 144.333 79 143.702 79H141.711ZM142.283 77.988H143.702C144.318 77.988 144.861 77.8487 145.33 77.57C145.807 77.284 146.181 76.8953 146.452 76.404C146.724 75.9053 146.859 75.337 146.859 74.699C146.859 74.0537 146.724 73.4853 146.452 72.994C146.181 72.5027 145.807 72.1177 145.33 71.839C144.861 71.5603 144.318 71.421 143.702 71.421H142.283V77.988ZM162.097 79C161.935 79 161.8 78.945 161.69 78.835C161.58 78.725 161.525 78.5893 161.525 78.428V70.981C161.525 70.8123 161.58 70.6767 161.69 70.574C161.8 70.464 161.935 70.409 162.097 70.409H167.069C167.237 70.409 167.373 70.4603 167.476 70.563C167.578 70.6583 167.63 70.7867 167.63 70.948C167.63 71.102 167.578 71.2267 167.476 71.322C167.373 71.4173 167.237 71.465 167.069 71.465H162.669V74.138H165.826C165.994 74.138 166.13 74.1893 166.233 74.292C166.335 74.3873 166.387 74.512 166.387 74.666C166.387 74.82 166.335 74.9483 166.233 75.051C166.13 75.1463 165.994 75.194 165.826 75.194H162.669V77.944H167.069C167.237 77.944 167.373 77.9917 167.476 78.087C167.578 78.1823 167.63 78.307 167.63 78.461C167.63 78.6223 167.578 78.7543 167.476 78.857C167.373 78.9523 167.237 79 167.069 79H162.097ZM196.561 79C196.4 79 196.264 78.945 196.154 78.835C196.044 78.725 195.989 78.5893 195.989 78.428V70.981C195.989 70.8123 196.044 70.6767 196.154 70.574C196.264 70.464 196.4 70.409 196.561 70.409H198.761C199.311 70.409 199.799 70.53 200.224 70.772C200.65 71.014 200.98 71.3513 201.214 71.784C201.456 72.2093 201.577 72.7007 201.577 73.258C201.577 73.7933 201.456 74.27 201.214 74.688C200.98 75.106 200.65 75.4323 200.224 75.667C199.799 75.9017 199.311 76.019 198.761 76.019H197.133V78.428C197.133 78.5893 197.078 78.725 196.968 78.835C196.866 78.945 196.73 79 196.561 79ZM197.133 74.963H198.761C199.099 74.963 199.396 74.8897 199.652 74.743C199.909 74.5963 200.111 74.3947 200.257 74.138C200.404 73.8813 200.477 73.588 200.477 73.258C200.477 72.906 200.404 72.598 200.257 72.334C200.111 72.0627 199.909 71.85 199.652 71.696C199.396 71.542 199.099 71.465 198.761 71.465H197.133V74.963ZM213.939 79C213.734 79 213.576 78.912 213.466 78.736C213.356 78.56 213.345 78.373 213.433 78.175L216.524 70.794C216.634 70.5373 216.814 70.409 217.063 70.409C217.327 70.409 217.507 70.5373 217.602 70.794L220.704 78.197C220.785 78.4023 220.77 78.5893 220.66 78.758C220.557 78.9193 220.4 79 220.187 79C220.077 79 219.971 78.9707 219.868 78.912C219.773 78.846 219.703 78.758 219.659 78.648L216.931 71.872H217.239L214.467 78.648C214.416 78.7653 214.339 78.8533 214.236 78.912C214.141 78.9707 214.042 79 213.939 79ZM214.522 77.108L214.962 76.162H219.274L219.714 77.108H214.522ZM237.419 79.11C236.825 79.11 236.268 79 235.747 78.78C235.234 78.5527 234.783 78.241 234.394 77.845C234.013 77.4417 233.712 76.9723 233.492 76.437C233.28 75.9017 233.173 75.3223 233.173 74.699C233.173 74.083 233.28 73.511 233.492 72.983C233.712 72.4477 234.013 71.982 234.394 71.586C234.783 71.1827 235.234 70.8673 235.747 70.64C236.261 70.4127 236.818 70.299 237.419 70.299C237.984 70.299 238.468 70.3723 238.871 70.519C239.282 70.6657 239.693 70.9077 240.103 71.245C240.162 71.289 240.206 71.3367 240.235 71.388C240.272 71.432 240.294 71.4797 240.301 71.531C240.316 71.575 240.323 71.63 240.323 71.696C240.323 71.8353 240.272 71.9527 240.169 72.048C240.074 72.136 239.957 72.1873 239.817 72.202C239.678 72.2093 239.542 72.1617 239.41 72.059C239.139 71.8243 238.857 71.6447 238.563 71.52C238.277 71.3953 237.896 71.333 237.419 71.333C236.987 71.333 236.58 71.421 236.198 71.597C235.817 71.773 235.48 72.015 235.186 72.323C234.9 72.631 234.677 72.9903 234.515 73.401C234.354 73.8043 234.273 74.237 234.273 74.699C234.273 75.1683 234.354 75.6083 234.515 76.019C234.677 76.4223 234.9 76.778 235.186 77.086C235.48 77.394 235.817 77.636 236.198 77.812C236.58 77.9807 236.987 78.065 237.419 78.065C237.793 78.065 238.145 78.0027 238.475 77.878C238.813 77.746 239.135 77.5663 239.443 77.339C239.575 77.2437 239.704 77.2033 239.828 77.218C239.96 77.2253 240.07 77.2767 240.158 77.372C240.246 77.46 240.29 77.5847 240.29 77.746C240.29 77.8193 240.276 77.8927 240.246 77.966C240.217 78.032 240.173 78.0943 240.114 78.153C239.718 78.4683 239.293 78.7067 238.838 78.868C238.391 79.0293 237.918 79.11 237.419 79.11ZM254.462 79C254.301 79 254.165 78.945 254.055 78.835C253.945 78.725 253.89 78.5893 253.89 78.428V70.981C253.89 70.8123 253.945 70.6767 254.055 70.574C254.165 70.464 254.301 70.409 254.462 70.409C254.631 70.409 254.767 70.464 254.869 70.574C254.979 70.6767 255.034 70.8123 255.034 70.981V78.428C255.034 78.5893 254.979 78.725 254.869 78.835C254.767 78.945 254.631 79 254.462 79ZM269.573 79C269.412 79 269.276 78.945 269.166 78.835C269.056 78.725 269.001 78.5893 269.001 78.428V70.981C269.001 70.8123 269.056 70.6767 269.166 70.574C269.276 70.464 269.412 70.409 269.573 70.409H274.545C274.714 70.409 274.849 70.4603 274.952 70.563C275.055 70.6583 275.106 70.7867 275.106 70.948C275.106 71.102 275.055 71.2267 274.952 71.322C274.849 71.4173 274.714 71.465 274.545 71.465H270.145V74.138H273.302C273.471 74.138 273.606 74.1893 273.709 74.292C273.812 74.3873 273.863 74.512 273.863 74.666C273.863 74.82 273.812 74.9483 273.709 75.051C273.606 75.1463 273.471 75.194 273.302 75.194H270.145V77.944H274.545C274.714 77.944 274.849 77.9917 274.952 78.087C275.055 78.1823 275.106 78.307 275.106 78.461C275.106 78.6223 275.055 78.7543 274.952 78.857C274.849 78.9523 274.714 79 274.545 79H269.573ZM289.034 79C288.873 79 288.737 78.945 288.627 78.835C288.525 78.725 288.473 78.5893 288.473 78.428V70.981C288.473 70.8123 288.525 70.6767 288.627 70.574C288.737 70.464 288.873 70.409 289.034 70.409C289.21 70.409 289.357 70.4787 289.474 70.618L294.27 76.998V70.981C294.27 70.8123 294.325 70.6767 294.435 70.574C294.545 70.464 294.681 70.409 294.842 70.409C295.011 70.409 295.147 70.464 295.249 70.574C295.352 70.6767 295.403 70.8123 295.403 70.981V78.428C295.403 78.5893 295.352 78.725 295.249 78.835C295.147 78.945 295.011 79 294.842 79C294.769 79 294.688 78.9853 294.6 78.956C294.52 78.9193 294.454 78.868 294.402 78.802L289.606 72.422V78.428C289.606 78.5893 289.551 78.725 289.441 78.835C289.339 78.945 289.203 79 289.034 79ZM311.915 79C311.754 79 311.618 78.945 311.508 78.835C311.398 78.725 311.343 78.5893 311.343 78.428V70.409H312.487V78.428C312.487 78.5893 312.432 78.725 312.322 78.835C312.212 78.945 312.076 79 311.915 79ZM308.967 71.465C308.813 71.465 308.685 71.4173 308.582 71.322C308.487 71.2193 308.439 71.091 308.439 70.937C308.439 70.783 308.487 70.6583 308.582 70.563C308.685 70.4603 308.813 70.409 308.967 70.409H314.852C315.006 70.409 315.131 70.4603 315.226 70.563C315.329 70.6583 315.38 70.783 315.38 70.937C315.38 71.091 315.329 71.2193 315.226 71.322C315.131 71.4173 315.006 71.465 314.852 71.465H308.967ZM328.989 79C328.827 79 328.692 78.945 328.582 78.835C328.472 78.725 328.417 78.5893 328.417 78.428V70.981C328.417 70.8123 328.472 70.6767 328.582 70.574C328.692 70.464 328.827 70.409 328.989 70.409H333.961C334.129 70.409 334.265 70.4603 334.368 70.563C334.47 70.6583 334.522 70.7867 334.522 70.948C334.522 71.102 334.47 71.2267 334.368 71.322C334.265 71.4173 334.129 71.465 333.961 71.465H329.561V74.138H332.718C332.886 74.138 333.022 74.1893 333.125 74.292C333.227 74.3873 333.279 74.512 333.279 74.666C333.279 74.82 333.227 74.9483 333.125 75.051C333.022 75.1463 332.886 75.194 332.718 75.194H329.561V77.944H333.961C334.129 77.944 334.265 77.9917 334.368 78.087C334.47 78.1823 334.522 78.307 334.522 78.461C334.522 78.6223 334.47 78.7543 334.368 78.857C334.265 78.9523 334.129 79 333.961 79H328.989ZM350.617 79.11C350.147 79.11 349.7 79.0367 349.275 78.89C348.849 78.7433 348.479 78.538 348.164 78.274C347.848 78.01 347.617 77.7057 347.471 77.361C347.397 77.207 347.397 77.064 347.471 76.932C347.551 76.8 347.683 76.7157 347.867 76.679C347.999 76.6497 348.127 76.6717 348.252 76.745C348.384 76.811 348.483 76.9137 348.549 77.053C348.637 77.2363 348.78 77.405 348.978 77.559C349.183 77.713 349.429 77.8377 349.715 77.933C350.001 78.0283 350.301 78.076 350.617 78.076C350.969 78.076 351.291 78.021 351.585 77.911C351.885 77.801 352.127 77.6433 352.311 77.438C352.494 77.2253 352.586 76.965 352.586 76.657C352.586 76.2683 352.432 75.92 352.124 75.612C351.823 75.304 351.324 75.1133 350.628 75.04C349.718 74.952 349.003 74.6843 348.483 74.237C347.962 73.7897 347.702 73.236 347.702 72.576C347.702 72.092 347.837 71.6813 348.109 71.344C348.38 71.0067 348.747 70.75 349.209 70.574C349.678 70.398 350.199 70.31 350.771 70.31C351.218 70.31 351.607 70.3723 351.937 70.497C352.274 70.6217 352.567 70.794 352.817 71.014C353.066 71.234 353.282 71.4943 353.466 71.795C353.568 71.9563 353.609 72.1103 353.587 72.257C353.572 72.3963 353.502 72.5063 353.378 72.587C353.238 72.675 353.088 72.6933 352.927 72.642C352.765 72.5907 352.644 72.4953 352.564 72.356C352.446 72.1433 352.303 71.9637 352.135 71.817C351.966 71.6703 351.768 71.5567 351.541 71.476C351.313 71.388 351.046 71.344 350.738 71.344C350.195 71.3367 349.74 71.4393 349.374 71.652C349.007 71.8573 348.824 72.1763 348.824 72.609C348.824 72.829 348.879 73.0417 348.989 73.247C349.106 73.445 349.315 73.6173 349.616 73.764C349.924 73.9107 350.364 74.0133 350.936 74.072C351.808 74.16 352.487 74.4277 352.971 74.875C353.462 75.315 353.708 75.898 353.708 76.624C353.708 77.042 353.62 77.405 353.444 77.713C353.275 78.021 353.044 78.2813 352.751 78.494C352.465 78.6993 352.135 78.8533 351.761 78.956C351.394 79.0587 351.013 79.11 350.617 79.11Z" fill="black"/>
</g>
<defs>
<filter id="filter0_d_5427_87" x="0.793945" y="0.890015" width="370.583" height="67.592" filterUnits="userSpaceOnUse" color-interpolation-filters="sRGB">
<feFlood flood-opacity="0" result="BackgroundImageFix"/>
<feColorMatrix in="SourceAlpha" type="matrix" values="0 0 0 0 0 0 0 0 0 0 0 0 0 0 0 0 0 0 127 0" result="hardAlpha"/>
<feOffset dy="4"/>
<feGaussianBlur stdDeviation="2"/>
<feComposite in2="hardAlpha" operator="out"/>
<feColorMatrix type="matrix" values="0 0 0 0 0 0 0 0 0 0 0 0 0 0 0 0 0 0 0.25 0"/>
<feBlend mode="normal" in2="BackgroundImageFix" result="effect1_dropShadow_5427_87"/>
<feBlend mode="normal" in="SourceGraphic" in2="effect1_dropShadow_5427_87" result="shape"/>
</filter>
<filter id="filter1_d_5427_87" x="3.7041" y="67.901" width="354.004" height="19.209" filterUnits="userSpaceOnUse" color-interpolation-filters="sRGB">
<feFlood flood-opacity="0" result="BackgroundImageFix"/>
<feColorMatrix in="SourceAlpha" type="matrix" values="0 0 0 0 0 0 0 0 0 0 0 0 0 0 0 0 0 0 127 0" result="hardAlpha"/>
<feOffset dy="4"/>
<feGaussianBlur stdDeviation="2"/>
<feComposite in2="hardAlpha" operator="out"/>
<feColorMatrix type="matrix" values="0 0 0 0 0 0 0 0 0 0 0 0 0 0 0 0 0 0 0.25 0"/>
<feBlend mode="normal" in2="BackgroundImageFix" result="effect1_dropShadow_5427_87"/>
<feBlend mode="normal" in="SourceGraphic" in2="effect1_dropShadow_5427_87" result="shape"/>
</filter>
</defs>
</svg>
